<svg width="128" height="128" viewBox="0 0 128 128" fill="none" xmlns="http://www.w3.org/2000/svg">
<g clip-path="url(#clip0_47:10757)">
<rect width="128" height="128" fill="#F18D8D"/>
<rect width="128" height="128" fill="url(#paint0_linear_47:10757)"/>
<g opacity="0.4">
<mask id="mask0_47:10757" style="mask-type:alpha" maskUnits="userSpaceOnUse" x="0" y="0" width="128" height="128">
<rect width="128" height="128" fill="white"/>
</mask>
<g mask="url(#mask0_47:10757)">
<path opacity="0.5" fill-rule="evenodd" clip-rule="evenodd" d="M88.2704 113.569C93.6773 110.911 98.5883 107.398 102.825 103.201L118.827 119.204H88.2704V113.569ZM64.2704 119.204V119.197C72.6629 119.157 80.6192 117.237 87.7371 113.832V119.204H64.2704ZM40.2704 119.204V113.832C47.3883 117.237 55.3445 119.157 63.7371 119.197V119.204H40.2704ZM9.18134 119.204L25.1824 103.201C29.4192 107.398 34.3312 110.911 39.7371 113.569V119.204H9.18134ZM14.4379 88.2703C17.096 93.6772 20.6096 98.5882 24.8059 102.825L8.80374 118.827V88.2703H14.4379ZM8.80374 64.2703H8.81014C8.85067 72.6639 10.7707 80.6191 14.1755 87.737H8.80374V64.2703ZM8.80374 40.2703H14.1755C10.7707 47.3882 8.85067 55.3444 8.81014 63.737H8.80374V40.2703ZM8.80374 9.18122L24.8059 25.1823C20.6096 29.4191 17.096 34.3311 14.4379 39.737H8.80374V9.18122ZM39.7371 14.4378C34.3312 17.0959 29.4192 20.6095 25.1824 24.8058L9.18134 8.80363H39.7371V14.4378ZM63.7371 8.80363V8.81003C55.3445 8.85056 47.3883 10.7716 40.2704 14.1754V8.80363H63.7371ZM87.7371 8.80363V14.1754C80.6192 10.7716 72.6629 8.85056 64.2704 8.81003V8.80363H87.7371ZM118.827 8.80363L102.825 24.8058C98.5883 20.6095 93.6773 17.0959 88.2704 14.4378V8.80363H118.827ZM113.57 39.737C110.913 34.3311 107.399 29.4191 103.203 25.1823L119.204 9.18122V39.737H113.57ZM119.204 63.737H119.197C119.158 55.3444 117.237 47.3882 113.833 40.2703H119.204V63.737ZM119.204 87.737H113.833C117.237 80.6191 119.158 72.6639 119.197 64.2703H119.204V87.737ZM88.648 88.2703H112.97C110.354 93.5311 106.919 98.314 102.825 102.447L88.648 88.2703ZM88.2704 88.6468L102.449 102.825C98.3141 106.919 93.5312 110.352 88.2704 112.97V88.6468ZM64.2704 98.3972C73.3616 98.3268 81.6187 94.7119 87.7371 88.8698V113.244C80.6309 116.683 72.6715 118.623 64.2704 118.664V98.3972ZM40.2704 88.8698C46.3888 94.7119 54.6459 98.3268 63.7371 98.3972V118.664C55.336 118.623 47.3765 116.683 40.2704 113.244V88.8698ZM39.7371 88.6479V112.97C34.4773 110.352 29.6933 106.919 25.56 102.825L39.7371 88.6479ZM39.3605 88.2703L25.1824 102.447C21.0885 98.314 17.6549 93.5311 15.0373 88.2703H39.3605ZM29.6101 64.2703C29.6805 73.3615 33.2955 81.6186 39.1376 87.737H14.7632C11.3243 80.6308 9.38401 72.6714 9.34348 64.2703H29.6101ZM39.1376 40.2703C33.2955 46.3887 29.6805 54.6458 29.6101 63.737H9.34348C9.38401 55.3359 11.3243 47.3764 14.7643 40.2703H39.1376ZM39.3605 39.737H15.0373C17.6549 34.4772 21.0885 29.6932 25.1824 25.5599L39.3605 39.737ZM39.7371 39.3594L25.56 25.1823C29.6933 21.0884 34.4773 17.6548 39.7371 15.0372V39.3594ZM63.7371 29.61C54.6459 29.6804 46.3888 33.2954 40.2704 39.1375V14.7642C47.3765 11.3242 55.336 9.38389 63.7371 9.34335V29.61ZM87.7371 39.1375C81.6187 33.2954 73.3616 29.6804 64.2704 29.61V9.34335C72.6715 9.38389 80.6309 11.3242 87.7371 14.7642V39.1375ZM88.2704 39.3604V15.0372C93.5312 17.6548 98.3141 21.0884 102.449 25.1823L88.2704 39.3604ZM88.648 39.737L102.825 25.5599C106.919 29.6932 110.353 34.4772 112.97 39.737H88.648ZM98.3973 63.737C98.328 54.6458 94.712 46.3887 88.8699 40.2703H113.244C116.683 47.3764 118.623 55.3359 118.664 63.737H98.3973ZM98.3973 64.2703H118.664C118.623 72.6714 116.683 80.6308 113.244 87.737H88.8699C94.712 81.6186 98.328 73.3615 98.3973 64.2703V64.2703ZM64.2704 88.2703H87.5931C81.5493 94.1476 73.3296 97.7935 64.2704 97.8639V88.2703ZM63.7371 88.2703V97.8639C54.6779 97.7935 46.4581 94.1476 40.4144 88.2703H63.7371ZM39.7371 64.2703V87.593C33.8608 81.5492 30.2149 73.3295 30.1435 64.2703H39.7371ZM39.7371 63.737H30.1435C30.2149 54.6778 33.8608 46.458 39.7371 40.4143V63.737ZM63.7371 39.737H40.4144C46.4581 33.8607 54.6779 30.2148 63.7371 30.1434V39.737ZM64.2704 39.737V30.1434C73.3296 30.2148 81.5493 33.8607 87.5931 39.737H64.2704ZM88.2704 63.737V40.4143C94.1477 46.458 97.7936 54.6778 97.864 63.737H88.2704ZM88.2704 64.2703H97.864C97.7936 73.3295 94.1477 81.5492 88.2704 87.594V64.2703ZM64.2704 64.6468L87.3605 87.737H64.2704V64.6468ZM63.7371 64.6479V87.737H40.648L63.7371 64.6479ZM63.3605 64.2703L40.2704 87.3604V64.2703H63.3605ZM63.3605 63.737H40.2704V40.6468L63.3605 63.737ZM63.7371 63.3594L40.648 40.2703H63.7371V63.3594ZM64.2704 63.3604V40.2703H87.3605L64.2704 63.3604ZM87.7371 64.2703V87.3594L64.648 64.2703H87.7371ZM64.648 63.737L87.7371 40.6479V63.737H64.648ZM119.204 118.827L103.203 102.825C107.399 98.5882 110.913 93.6772 113.57 88.2703H119.204V118.827ZM129.448 129.07L120.115 119.737H128.27V119.204H119.737V88.2703H128.27V87.7369H119.737V64.2703H128.27V63.7369H119.737V40.2703H128.27V39.7369H119.737V8.80361H128.27V8.27028H120.115L128.381 0.00360852L128.004 -0.372925L119.737 7.89374V-0.263058H119.204V8.27028H88.2705V-0.263058H87.7372V8.27028H64.2705V-0.263058H63.7372V8.27028H40.2705V-0.263058H39.7372V8.27028H8.80382V-0.263058H8.27049V7.89374L0.00382072 -0.372925L-0.373779 0.00360852L7.89395 8.27028H-0.262846V8.80361H8.27049V39.7369H-0.262846V40.2703H8.27049V63.7369H-0.262846V64.2703H8.27049V87.7369H-0.262846V88.2703H8.27049V119.204H-0.262846V119.737H7.89395L-0.373779 128.004L0.00382072 128.381L8.27049 120.115V128.27H8.80382V119.737H39.7372V128.27H40.2705V119.737H63.7372V128.27H64.2705V119.737H87.7372V128.27H88.2705V119.737H119.204V128.27H119.737V120.115L129.07 129.448L129.448 129.07Z" fill="white"/>
</g>
</g>
<g opacity="0.4">
<rect opacity="0.720266" x="21.625" y="5.625" width="85" height="117" rx="8.875" stroke="white" stroke-width="0.25"/>
<rect opacity="0.720266" x="13.625" y="13.625" width="101" height="101" rx="8.875" stroke="white" stroke-width="0.25"/>
<rect opacity="0.720266" x="5.625" y="21.625" width="117" height="85" rx="8.875" stroke="white" stroke-width="0.25"/>
<path d="M122.625 64.125C122.625 96.4337 96.4337 122.625 64.125 122.625C31.8163 122.625 5.625 96.4337 5.625 64.125C5.625 31.8163 31.8163 5.625 64.125 5.625C96.4337 5.625 122.625 31.8163 122.625 64.125Z" stroke="white" stroke-width="0.25"/>
<path d="M90.375 64.125C90.375 78.6225 78.6225 90.375 64.125 90.375C49.6275 90.375 37.875 78.6225 37.875 64.125C37.875 49.6275 49.6275 37.875 64.125 37.875C78.6225 37.875 90.375 49.6275 90.375 64.125Z" stroke="white" stroke-width="0.25"/>
<rect x="45.625" y="45.625" width="37" height="37" stroke="white" stroke-width="0.25"/>
<path d="M45.625 0.125V128.125" stroke="white" stroke-width="0.25" stroke-linecap="square"/>
<path d="M64.125 0V128" stroke="white" stroke-width="0.25" stroke-linecap="square"/>
<path d="M82.625 0V128" stroke="white" stroke-width="0.25" stroke-linecap="square"/>
<path d="M128.125 45.625H0.125" stroke="white" stroke-width="0.25" stroke-linecap="square"/>
<path d="M128 64.125H0" stroke="white" stroke-width="0.25" stroke-linecap="square"/>
<path d="M128.125 82.625H0.125" stroke="white" stroke-width="0.25" stroke-linecap="square"/>
<path d="M0.125 0.125L128.125 128.125" stroke="white" stroke-width="0.25" stroke-linecap="square"/>
<path d="M128.125 0.125L0.125 128.125" stroke="white" stroke-width="0.25" stroke-linecap="square"/>
</g>
<path d="M128 0H0V128H128V0Z" fill="#4B0082"/>
<path d="M35.0104 98.6354C29.5591 98.6354 24.9409 97.6978 21.1563 95.8229C17.3715 93.9132 14.2987 91.6389 11.9375 89L17.4584 81.6562C19.5069 83.7396 21.8855 85.5277 24.5937 87.0208C27.3368 88.5138 30.4965 89.2604 34.0729 89.2604C37.8924 89.2604 40.9653 88.3056 43.2917 86.3958C45.618 84.4861 46.7812 81.7952 46.7812 78.3229C46.7812 75.8924 46.1736 73.7569 44.9584 71.9166C43.7777 70.0764 41.7119 68.6528 38.7604 67.6458C35.8091 66.6041 31.6944 66.0833 26.4167 66.0833V57.6978C31 57.6978 34.5937 57.1424 37.1979 56.0312C39.8021 54.8854 41.6424 53.3924 42.7188 51.5521C43.8299 49.677 44.3855 47.6632 44.3855 45.5104C44.3855 42.4201 43.4653 39.9548 41.6251 38.1145C39.8195 36.2396 37.2673 35.3021 33.9688 35.3021C31.3299 35.3021 28.882 35.8402 26.6251 36.9166C24.368 37.9584 22.2153 39.4688 20.1667 41.4478L14.2292 34.3645C17.0416 31.7952 20.132 29.7986 23.5 28.3749C26.9028 26.9513 30.6355 26.2396 34.6979 26.2396C41.1909 26.2396 46.3472 27.8889 50.1667 31.1874C54.0208 34.4861 55.9479 38.9826 55.9479 44.677C55.9479 48.5312 54.8715 51.9166 52.7188 54.8333C50.566 57.7153 47.6667 59.868 44.0208 61.2917V61.7082C48.0487 62.7153 51.4167 64.6597 54.1251 67.5416C56.868 70.4236 58.2396 74.1389 58.2396 78.6874C58.2396 82.75 57.2153 86.2742 55.1667 89.2604C53.1528 92.2465 50.3924 94.5556 46.8855 96.1874C43.3785 97.8194 39.4201 98.6354 35.0104 98.6354Z" fill="#E6E6FA"/>
<path d="M75.6601 64.8139C72.7305 64.8139 70.0937 64.1628 67.75 62.8607C65.4063 61.537 63.5508 59.6055 62.1836 57.0664C60.8164 54.5056 60.1328 51.359 60.1328 47.6263C60.1328 43.8503 60.8707 40.7036 62.3464 38.1862C63.8437 35.6472 65.8185 33.7375 68.2708 32.4571C70.7231 31.1767 73.3815 30.5364 76.2461 30.5364C78.3511 30.5364 80.2065 30.8946 81.8125 31.6107C83.4401 32.3051 84.7964 33.195 85.8815 34.28L82.4961 38.7722C81.6064 38.0126 80.6732 37.4267 79.6967 37.0143C78.72 36.5803 77.6892 36.3634 76.6041 36.3634C73.8915 36.3634 71.678 37.3616 69.9636 39.3582C68.2708 41.333 67.4245 44.089 67.4245 47.6263C67.4245 51.1419 68.2491 53.9088 69.8984 55.9271C71.5695 57.9454 73.7287 58.9544 76.3763 58.9544C77.7869 58.9544 79.0564 58.7048 80.1849 58.2058C81.3133 57.7066 82.3333 57.0772 83.2448 56.3178L86.2396 60.9076C84.7205 62.2314 83.0495 63.2188 81.2265 63.8698C79.4036 64.4991 77.5481 64.8139 75.6601 64.8139ZM102.227 64.8139C99.4705 64.8139 96.9205 64.1519 94.5768 62.8282C92.2548 61.4827 90.3776 59.5404 88.9453 57.0014C87.5347 54.4406 86.8295 51.3264 86.8295 47.6588C86.8295 43.9696 87.5347 40.8555 88.9453 38.3164C90.3776 35.7556 92.2548 33.8243 94.5768 32.5222C96.9205 31.1984 99.4705 30.5364 102.227 30.5364C104.983 30.5364 107.522 31.1984 109.844 32.5222C112.187 33.8243 114.075 35.7556 115.508 38.3164C116.94 40.8555 117.656 43.9696 117.656 47.6588C117.656 51.3264 116.94 54.4406 115.508 57.0014C114.075 59.5404 112.187 61.4827 109.844 62.8282C107.522 64.1519 104.983 64.8139 102.227 64.8139ZM102.227 58.9544C104.787 58.9544 106.773 57.9344 108.184 55.8946C109.616 53.833 110.332 51.0878 110.332 47.6588C110.332 44.2083 109.616 41.4631 108.184 39.4232C106.773 37.3832 104.787 36.3634 102.227 36.3634C99.6875 36.3634 97.7127 37.3832 96.3021 39.4232C94.8915 41.4631 94.1861 44.2083 94.1861 47.6588C94.1861 51.0878 94.8915 53.833 96.3021 55.8946C97.7127 57.9344 99.6875 58.9544 102.227 58.9544Z" fill="#E6E6FA"/>
<path d="M64 71.1666H114.667" stroke="#E6E6FA" stroke-width="6"/>
</g>
<defs>
<linearGradient id="paint0_linear_47:10757" x1="64" y1="0" x2="64" y2="128" gradientUnits="userSpaceOnUse">
<stop stop-color="#E8EBEE"/>
<stop offset="1" stop-color="#CED3DB"/>
</linearGradient>
<clipPath id="clip0_47:10757">
<rect width="128" height="128" fill="white"/>
</clipPath>
</defs>
</svg>
